# xmcd
#
# Track frame offsets:
#	150
#	18520
#	35282
#	51778
#	67769
#	86098
#	105441
#	126176
#	145678
#	162821
#	179511
#	197187
#	216306
#	236231
#
# Disc length: 3382 seconds
#
# Revision: 1
# Processed by: cddbd v1.5.2PL0 Copyright (c) Steve Scherf et al.
# Submitted via: EasyCDDAExtractor 12.0.4.1
#
DISCID=c10d340e
DTITLE=Various Artist - HURT SONGS
DYEAR=2008
DGENRE=Blues
TTITLE0=อ๊อฟ ปองศักดิ์/คำถามทีต้องตอบ - คำถามที่ต้องตอบ
TTITLE1=Endorhhine/เมื่อเขามา...ฉันจะไป - เมื่อเขามา...ฉันจะไป
TTITLE2=Palmy/ความเจ็บปวด - ความเจ็บปวด
TTITLE3=แอม เสาวลักษณ์/ครึ่งหนึ่งของชีวิต - ครึ่งหนึ่งของชีวิต
TTITLE4=Clash/ขอเจ็บแทน - ขอเจ็บแทน
TTITLE5=พั้นช์/วางมือบนบ่า น้ำตาก็ไหล - วางมือบนบ่า น้ำตาก็ไหล
TTITLE6=เป๊ก ผลิตโชค/ใจหนึ่งก็รัก อีกใจก็เจ็บ - ใจหนึ่งก็รัก อีกใจก็เจ็บ
TTITLE7=ไอซ์ ศรัณยู/คนดีๆทำไมไม่รัก - คนดีๆทำไมไม่รัก
TTITLE8=นัท มีเรีย/รักไม่ช่วยอะไร - รักไม่ช่วยอะไร
TTITLE9=Bodyslam/ความรักทำให้ตาบอด - ความรักทำให้ตาบอด
TTITLE10=Fahrenheit/ผิดไหม - ผิดไหม
TTITLE11=Peacemaker/ส่วนเกิน - ส่วนเกิน
TTITLE12=พลพล/ชั่วฟ้าดินสลาย - ชั่วฟ้าดินสลาย
TTITLE13=ติ๊ก ชีโร่/รักไม่ยอมเปลี่ยนแปลง - รักไม่ยอมเปลี่ยนแปลง
EXTD=
EXTT0=
EXTT1=
EXTT2=
EXTT3=
EXTT4=
EXTT5=
EXTT6=
EXTT7=
EXTT8=
EXTT9=
EXTT10=
EXTT11=
EXTT12=
EXTT13=
PLAYORDER=
